P1
# Created by GIMP version 2.10.34 PNM plug-in
100 100
0000000000000000000000000000000000000000000000000000000000000000000000
0000000000000000000000000000000000000000000000000000000000000000000000
0000000000000000000000000000000000000000000000000000000000000000000000
0000000000000000000000000000000000000000000000000000000000000000000000
0000000000000000000000000000000000000000000000000000000000000000000000
0000000000000000000000000000000000000000000000000000000000000000000000
0000000000000000000000000000000000000000000000000000000000000000000000
0000000000000000000001000000000000000000000000000000000000000000000000
0000000000000000000000000000000000000000000000000000001100000000000000
0000000000000000000000000000000000010111111111010100000000000000000000
0000000000000000010000000000000000000000000000000000000000011110000000
0000000010000000000000000000000000000000000000000110000000000000000000
0000000000000000010000000000000000000000000000000000000000000000000000
0000000000000110000000000000000000000000000011000000000000000000000010
0000000000000000000000000000000000000000000000100000000000000000000000
0010000000000000000000000000000000000000000000000000000000000000000000
0000000010100000000000000000011000000000000000000000000000100000000000
0000000000000000000000000000000000000000001100000000000010100000000000
0000000000000000001000000000000000000000000000000000000000000000000000
0000001101000110000000000000000000000000000000000000000000000000000000
0000000000000000000000000000000000000110111000000000000000000000000000
0000000010000000000000000000000000000000000000000000000000000000010000
0001100000000000000000000000000000000000000000000000000000000000000000
0000000000000000000000110000000000001100000000000000000000000000000000
0000000000000000000000000000000000000000000000000010000000000000000000
1000000000000000000000000001000000000000000000000000000000000000000000
0000000010000000000000000000000010000000000000000000000000000000000000
0000000000000000000000000000000000001000000000000000000000000000010000
0000000000000000010000000000000000000000000000000000000000000000100000
0000000000000000000000000001100000000000000000010000000000000000000000
0000000000000000000001000000000000000000000000000000000000000100000000
0000000100000000000000000000000000000000000000000000100000000000000000
0000000000000000000000010000000000000000000000000000000000000000000000
0000000000000100000000000000000000000000000000000000000101000000000000
0000000000000000000000000000000000000000000001000000000000000000000000
0000000000000000000101000010000000000000000000000000000000000000000000
0000001000000000000000000000000000000000000000000000101010000000000000
0000000000000000000000000000000000000010000000000000000000000000000000
0000000000000000101100000000000000000000000000000000000000000000000001
1000000000000000000000000000000000000000000000100000111000000000000000
0000000000000000000000000000000010000000000000000000000000000000000000
0000000000000000110100000000000000000000000000000000000000000000100000
0000000000000000000000000000000000000000000000000011000000000000000000
0000000000000000000000000000000000000000000000000000000000000000010000
0000000110000000000000000000000000000000000000000000000001000000000000
0000000000000000000000000100000000100000000000000000000000000000000000
0000000000000000000100000000000000000000000000000000000100001101000000
0000000000000000000000000000000000000000000000000001000000000000000000
0000000000001011010000000000000000000000000000000000000000000000000000
0000000000000100000000000000000000000011000000000000000000000000000000
0000000000000000000000000000000000000000000010000000000000000000110000
0000100000000000000000000000000000000000000000000000000000000000000000
0000001000000000000001100000000000000000000000000000000000000000000000
0000000000000000000000000000000000000010001011111000000000000000100000
0000000000000000000000000000000000000000000000000000000000001011110101
1000000000000000000000001000000000000000000000000000000000000000000000
0000000000000101110000000000000100000000000000000000000000000000000000
0000000000000000000000000000000000000001100000000000000000000001000000
0000000000000000000000000000000000000000000000000000000000000000000010
0000000000000000000000000100000000000000000100000000000000000000000000
0000000000000000000000000010000000000000000000000000000000000000000000
0001000000000000000000000000000000000000000000000000000000000000000000
0000000000000000001000000000000001000000000000000000000000000000000000
0000000000000100000000000000000000000000000000000010000000000000000000
0000000000000000000000000000000000000000010000000000000000000000000000
0000000000001000000000000000000000000000000000000000000000000000000001
0000000000000000000000000000000000000000000010000000100000000000000000
0000000000000000000000000000000000000000000000000000000000000000000000
0000001000001000000000000000000000000000000000000000000001010000000000
0000000000000000000000000000000000000010001000000000000000000000000000
0000000000000000000011000000000000000000000000000000000000000000000000
1010000000000000000000000000000000000000000000000000010110000000000000
0000000000000000000000000000000011100000000000000000000000000000000000
0000000000000000001010000000000000000000000000000000000000000000010000
0000000000000000000000000000000000000000000000000000101100000000000000
0000000000000000000000010000000000000000000000000000000000000000000000
0000000000000000010111000000000000000000000000000001100000000000000000
0000000000000000000000000000000000000000000000000000010100000000000000
0000000000100000000000000000000000000000000000000000000000000000000000
0000000000000000010110000000000000000010010000000000000000000000000000
0000000000000000000000000000000000000000000000000000101100000000001000
0100000000000000000000000000000000000000000000000000000000000000000000
0000000000000000100111011000000000000000000000000000000000000000000000
0000000000000000000000000000000000000000000000000010101100000100000000
0000000000000000000000000000000000000000000000000000000000000000000000
0000000110000000101010000000000000000000000000000000000000000000000000
0000000000000000000000000000000000110000000000000011100000000000000000
0000000000000000000000000000000000000000000000000000000000001100000000
0000000000000010110000000000000000000000000000000000000000101010111101
0101010101010101011000000000000000000000000000000110000000000000000000
0000000000000000000100000000000000000000000000000000000000000000000001
0000000000000110000000000000000000000000000000000001000000000000000000
0000000000000000000000000000000000000000000000100000000000000000000000
0000000000001010000000000000000000000000000000000000000000010000000000
0000000010100000000000000000000000000000000000101100000000000000000000
0000000000000000000100000000000000000000001000000000000000000000000000
0000000000011000000000000000000000000000000000000000000000000000000000
0000100000000000000000000000000000000000000010000000000000000000000000
0000000010000000000000000000000001000000000000000000000000000000000000
0000000100000000000000000000000000000010000000000000000000000100000000
0000000000000000000000000000000000000001000000000000000000000000000010
0000000000000000000010000000000000000000000000000000000000000000000000
0101000000000000000000000000100000000000000000000000000000000000000000
0000000000000000000000000000000000010000000000000000000000000000000000
0000000100000000000000000000000000000000000000000000000000000000000010
0000000000000000000000000000000001010000000000000000000000000000000000
0000000000000000000000000000001000000000000000000000000000011100000000
0000000000000000000000000000000000000000000000000000000000000011111101
0101010110101010100000000000000000000000000000000000000000000000000000
0000000010101011111010001000000000000000000000000000000000000000000000
0000000000000000000000000000000001111000000000000000000100000000000000
0000000000000000000000000000000000000000000000000000000000001000000000
0000000000000000010000000000000000000000000000000000000000000000000000
0000000000000000000100000000000000000000000000001000000000000000000000
0000000000000000000000000000000000000000000001010000000000000000000000
0000000001000000000000000000000000000000000000000000000000000000000000
0011000000000000000000000000000000000000100000000000000000000000000000
0000000000000000000000000000001000000000000000000000000000000000000000
0000000000000000000000000000000000000000000000000000000000100000000000
0000000000000000000000000000000000000000000000000000000000000000000000
0000000000000001000000000000000000000000000000000000000000000001000000
0000000000000000000000000000000000000000000010000000000000000000000000
0000000000000000000000001000000000000000000000000000000000000000000000
0010000000000000000000000000000000000000000000000000000100000000000000
0000000000000000000000000000000000000000000000000000000000000000000000
0000000000000000100000000000000000000000000000000000000000000000000000
0000000000000000000000000000000000000000000000000000000000000000000000
0000000000000000000010000000000000000000000000000000000000000000000000
0000000010000000000000000000000000000000000000000010000000000000000000
0000000000000000000000000000000000000000000000000000000000000000000000
0000000000010011100000000000000000000000000000000000000000000000000000
0000000000000000000000000000000000000000000000001010000000000000000000
0000000000000000000000000000000000000000000000000000000000000000000000
0000000000000110000000000000000000000000000000000000000000000100000000
0000000000000000000000000000000000000000000000110000000000000000000000
0000000000000000000000100000000000000000000000000000000000000000000000
0000000000110100000000000000000000000000000000000000010000000000000000
0000000000000000000000000000000000000000000001010101011111111100000000
0000000000000000000000000000000000000000000000000000000000000000000000
0000000000000000000000001010101110000000000001000000000000000000000000
0000000000000000000000000000000000000000000000000000000000000000101000
0000000000000000000000000000000000000000000000000000000000000000000000
000000000000000000000000000011000000000000000000000000000000